<?xml version="1.0" standalone="no"?>
<!DOCTYPE svg PUBLIC "-//W3C//DTD SVG 20010904//EN"
 "http://www.w3.org/TR/2001/REC-SVG-20010904/DTD/svg10.dtd">
<svg version="1.0" xmlns="http://www.w3.org/2000/svg"
 width="673.000000pt" height="166.000000pt" viewBox="0 0 673.000000 166.000000"
 preserveAspectRatio="xMidYMid meet">

<g transform="translate(0.000000,166.000000) scale(0.100000,-0.100000)"
fill="#000000" stroke="none">
<path d="M1224 1480 c-136 -25 -262 -91 -363 -190 -125 -123 -190 -268 -199
-446 -15 -313 173 -582 473 -681 103 -34 275 -38 370 -9 253 78 423 254 486
506 18 69 21 103 16 180 -17 298 -202 532 -492 622 -71 22 -219 31 -291 18z
m270 -70 c111 -28 189 -74 277 -160 126 -126 182 -262 183 -445 0 -174 -57
-309 -184 -436 -123 -123 -260 -179 -438 -179 -179 0 -309 54 -438 184 -60 60
-90 100 -118 156 -88 182 -86 397 6 573 50 96 176 218 273 263 43 21 101 43
129 50 81 19 221 17 310 -6z"/>
<path d="M1260 1380 c-210 -26 -401 -182 -470 -383 -12 -35 -24 -101 -27 -152
-11 -174 52 -332 182 -453 113 -106 231 -152 388 -152 166 0 286 49 403 165
222 220 230 565 18 794 -127 137 -310 204 -494 181z"/>
</g>
</svg>
